<svg width="24" height="24" viewBox="0 0 24 24" fill="none" xmlns="http://www.w3.org/2000/svg">
    <path fill-rule="evenodd" clip-rule="evenodd" d="M5 5C4.44772 5 4 5.44772 4 6V18C4 18.5523 4.44772 19 5 19H19C19.5523 19 20 18.5523 20 18V8H13.4142C12.8838 8 12.3751 7.78929 12 7.41421L9.87868 5.29289C9.69114 5.10536 9.43679 5 9.17157 5H5ZM2 6C2 4.34315 3.34315 3 5 3H9.17157C9.96722 3 10.7303 3.31607 11.2929 3.87868L13.4142 6H20C21.1046 6 22 6.89543 22 8V18C22 19.6569 20.6569 21 19 21H5C3.34315 21 2 19.6569 2 18V6Z" fill="#919BB6"/>
</svg>